<svg width="15" height="14" viewBox="0 0 15 14" fill="none" xmlns="http://www.w3.org/2000/svg">
    <path d="M7.46857 4.19593C5.91681 4.19593 4.66447 5.44827 4.66447 7.00003C4.66447 8.55179 5.91681 9.80413 7.46857 9.80413C9.02033 9.80413 10.2727 8.55179 10.2727 7.00003C10.2727 5.44827 9.02033 4.19593 7.46857 4.19593ZM7.46857 8.82249C6.46505 8.82249 5.64611 8.00354 5.64611 7.00003C5.64611 5.99651 6.46505 5.17757 7.46857 5.17757C8.47209 5.17757 9.29103 5.99651 9.29103 7.00003C9.29103 8.00354 8.47209 8.82249 7.46857 8.82249ZM10.3875 3.42757C10.0252 3.42757 9.73263 3.72015 9.73263 4.08245C9.73263 4.44475 10.0252 4.73733 10.3875 4.73733C10.7498 4.73733 11.0424 4.44612 11.0424 4.08245C11.0425 3.99642 11.0256 3.91121 10.9928 3.83171C10.9599 3.75221 10.9117 3.67997 10.8508 3.61914C10.79 3.5583 10.7178 3.51007 10.6383 3.4772C10.5588 3.44432 10.4735 3.42746 10.3875 3.42757ZM12.9346 7.00003C12.9346 6.24534 12.9414 5.49749 12.899 4.74417C12.8567 3.86917 12.657 3.09261 12.0172 2.45276C11.376 1.81155 10.6008 1.61331 9.7258 1.57093C8.97111 1.52854 8.22326 1.53538 7.46994 1.53538C6.71525 1.53538 5.9674 1.52854 5.21408 1.57093C4.33908 1.61331 3.56252 1.81292 2.92267 2.45276C2.28146 3.09397 2.08322 3.86917 2.04084 4.74417C1.99845 5.49886 2.00529 6.24671 2.00529 7.00003C2.00529 7.75335 1.99845 8.50257 2.04084 9.25589C2.08322 10.1309 2.28283 10.9074 2.92267 11.5473C3.56388 12.1885 4.33908 12.3867 5.21408 12.4291C5.96877 12.4715 6.71662 12.4647 7.46994 12.4647C8.22462 12.4647 8.97248 12.4715 9.7258 12.4291C10.6008 12.3867 11.3774 12.1871 12.0172 11.5473C12.6584 10.9061 12.8567 10.1309 12.899 9.25589C12.9428 8.50257 12.9346 7.75472 12.9346 7.00003ZM11.7315 10.2239C11.6317 10.4727 11.5113 10.6586 11.3186 10.85C11.1258 11.0428 10.9412 11.1631 10.6924 11.2629C9.97326 11.5487 8.26564 11.4844 7.46857 11.4844C6.6715 11.4844 4.96252 11.5487 4.24338 11.2643C3.99455 11.1645 3.80861 11.0442 3.6172 10.8514C3.42443 10.6586 3.30412 10.4741 3.20431 10.2252C2.91994 9.50472 2.9842 7.7971 2.9842 7.00003C2.9842 6.20296 2.91994 4.49397 3.20431 3.77483C3.30412 3.526 3.42443 3.34007 3.6172 3.14866C3.80998 2.95725 3.99455 2.83558 4.24338 2.73577C4.96252 2.4514 6.6715 2.51565 7.46857 2.51565C8.26564 2.51565 9.97463 2.4514 10.6938 2.73577C10.9426 2.83558 11.1285 2.95589 11.3199 3.14866C11.5127 3.34143 11.633 3.526 11.7328 3.77483C12.0172 4.49397 11.9529 6.20296 11.9529 7.00003C11.9529 7.7971 12.0172 9.50472 11.7315 10.2239Z" fill="#34366D"/>
</svg>
