<svg width="14" height="14" viewBox="0 0 14 14" fill="none" xmlns="http://www.w3.org/2000/svg">
    <path d="M4.22819 3.20833C4.22805 3.49564 4.11377 3.77114 3.91051 3.9742C3.70724 4.17726 3.43163 4.29126 3.14432 4.29112C2.857 4.29097 2.5815 4.1767 2.37844 3.97343C2.17538 3.77017 2.06138 3.49456 2.06152 3.20724C2.06167 2.91992 2.17594 2.64443 2.37921 2.44137C2.58247 2.23831 2.85808 2.12431 3.1454 2.12445C3.43272 2.12459 3.70821 2.23887 3.91127 2.44213C4.11434 2.6454 4.22833 2.92101 4.22819 3.20833ZM4.26069 5.09333H2.09402V11.875H4.26069V5.09333ZM7.68402 5.09333H5.52819V11.875H7.66236V8.31624C7.66236 6.33374 10.2461 6.14958 10.2461 8.31624V11.875H12.3857V7.57958C12.3857 4.23749 8.56152 4.36208 7.66236 6.00333L7.68402 5.09333Z"
          fill="#34366D"/>
</svg>
